<?xml version="1.0" encoding="UTF-8"?><svg xmlns="http://www.w3.org/2000/svg" xmlns:xlink="http://www.w3.org/1999/xlink" width="32px" height="32px" viewBox="0 0 72 72" version="1.1"><title>medium</title><g id="providers-list" stroke="none" stroke-width="1" fill="none" fill-rule="evenodd"><g id="medium"><rect id="Rectangle-3" fill="#1A1919" x="0" y="0" width="72" height="72" rx="4"/><path d="M59 23.453h-1.82c-.675 0-1.63.99-1.63 1.623v22.972c0 .634.955 1.5 1.63 1.5H59V55H42.517v-5.453h3.45V25.4h-.17L37.742 55h-6.237L23.55 25.4h-.201v24.147h3.45V55H13v-5.453h1.767c.728 0 1.683-.865 1.683-1.5v-22.97c0-.634-.955-1.624-1.683-1.624H13V18h17.256l5.666 21.421h.156L41.796 18H59v5.453" id="Fill-1" fill="#FFF"/></g></g><metadata><rdf:RDF xmlns:rdf="http://www.w3.org/1999/02/22-rdf-syntax-ns#" xmlns:rdfs="http://www.w3.org/2000/01/rdf-schema#" xmlns:dc="http://purl.org/dc/elements/1.1/"><rdf:Description about="https://iconscout.com/legal#licenses" dc:title="medium" dc:description="medium" dc:publisher="Iconscout" dc:date="2017-09-26" dc:format="image/svg+xml" dc:language="en"><dc:creator><rdf:Bag><rdf:li>Luc Chaffard</rdf:li></rdf:Bag></dc:creator></rdf:Description></rdf:RDF></metadata></svg>